# xmcd CD database file
# Copyright (C) 1993-1996 Ti Kan
#
# Track frame offsets:
#	150
#	16965
#	34258
#	54099
#	69824
#	84030
#	98879
#	111994
#	125490
#	136919
#	151895
#	165052
#	186584
#	208326
#	228072
#	243458
#
# Disc length: 3401 seconds
#
# Revision: 1
# Processed by: cddbd v1.4b41PL1 Copyright (c) Steve Scherf et al.
# Submitted via: CDValet v3.01 - Copyright (c) 1997 Greg Leichner
#
DISCID=c30d4710
DTITLE=Stefan George - Stef's Blue Bait Shop
DYEAR=1900
DGENRE=
TTITLE0=Dead Shrimp Blues (Robert Johnson)
TTITLE1=Cry Me A River (Arthur Hamilton)
TTITLE2=Live With Yourself (Stefan George)
TTITLE3=Rock Me Baby (Josea and King)
TTITLE4=Walkin' Blues (Robert Johnson)
TTITLE5='68 Ford (Stefan George)
TTITLE6=If You're Comin' (Brownie McGhee)
TTITLE7=Have You Had Your Blues (Stefan George)
TTITLE8=Blackbird (Lennon and McCartney)
TTITLE9=Kind Hearted Woman (Robert Johnson)
TTITLE10=Dissatisfied Blues (Muddy Waters)
TTITLE11=County Line Road (Steve James)
TTITLE12='52 Vincent Black Lightning (Richard Thompson)
TTITLE13=Come On In My Kitchen (Robert Johnson)
TTITLE14=Pay Day (Mississippi John Hurt)
TTITLE15=Wee Small Hours (Mann and Hilliard)
EXTD=
EXTT0=
EXTT1=
EXTT2=
EXTT3=
EXTT4=
EXTT5=
EXTT6=
EXTT7=
EXTT8=
EXTT9=
EXTT10=
EXTT11=
EXTT12=
EXTT13=
EXTT14=
EXTT15=
PLAYORDER=
